PathFileType	3	(X/Y/Z)	results
DataRate	CameraRate	NumFrames	NumMarkers	Units	OrigDataRate	OrigDataStartFrame	OrigNumFrames
30.0	30.0	4	85	mm	30.0	206	410
Frame#	Time	head			nose			neck			shoulder_r			elbow_r			wrist_r			shoulder_l			elbow_l			wrist_l			hip_r			knee_r			ankle_r			hip_l			knee_l			ankle_l			heel_r			heel_l			mtoe_r			ltoe_r			mtoe_l			ltoe_l			asis_l			asis_r			psi_r			psi_l			mhnd_r			lhnd_r			mhnd_l			lhnd_l			l_lat_knee			r_med_wrist			l_lat_ankle			r_med_ankle			r_lat_knee			xiphoid			l_med_ankle			r_med_knee			l_med_elbow			navel			r_lat_elbow			r_lat_wrist			l_med_wrist			l_lat_elbow			l_med_knee			r_med_elbow			r_lat_ankle			l_lat_wrist			chin			T10			r_eye			l_eye			l_ear			r_ear			spinal_cord_8			spinal_cord_12			spinal_cord_27			spinal_cord_33			up_arm_r_0			up_arm_r_5			up_arm_l_0			up_arm_l_5			front_torso_11			front_torso_7			front_torso_4			front_torso_1			front_torso_10			thigh_r_2			thigh_r_3			thigh_l_1			thigh_l_5			shank_l_0			shank_l_4			shank_r_1			shank_r_2			foot_r_1			foot_r_3			foot_r_5			foot_r_6			foot_r_7			foot_l_1			foot_l_7			foot_l_0			foot_l_4			foot_l_5			foot_l_6			
		X1	Y1	Z1	X2	Y2	Z2	X3	Y3	Z3	X4	Y4	Z4	X5	Y5	Z5	X6	Y6	Z6	X7	Y7	Z7	X8	Y8	Z8	X9	Y9	Z9	X10	Y10	Z10	X11	Y11	Z11	X12	Y12	Z12	X13	Y13	Z13	X14	Y14	Z14	X15	Y15	Z15	X16	Y16	Z16	X17	Y17	Z17	X18	Y18	Z18	X19	Y19	Z19	X20	Y20	Z20	X21	Y21	Z21	X22	Y22	Z22	X23	Y23	Z23	X24	Y24	Z24	X25	Y25	Z25	X26	Y26	Z26	X27	Y27	Z27	X28	Y28	Z28	X29	Y29	Z29	X30	Y30	Z30	X31	Y31	Z31	X32	Y32	Z32	X33	Y33	Z33	X34	Y34	Z34	X35	Y35	Z35	X36	Y36	Z36	X37	Y37	Z37	X38	Y38	Z38	X39	Y39	Z39	X40	Y40	Z40	X41	Y41	Z41	X42	Y42	Z42	X43	Y43	Z43	X44	Y44	Z44	X45	Y45	Z45	X46	Y46	Z46	X47	Y47	Z47	X48	Y48	Z48	X49	Y49	Z49	X50	Y50	Z50	X51	Y51	Z51	X52	Y52	Z52	X53	Y53	Z53	X54	Y54	Z54	X55	Y55	Z55	X56	Y56	Z56	X57	Y57	Z57	X58	Y58	Z58	X59	Y59	Z59	X60	Y60	Z60	X61	Y61	Z61	X62	Y62	Z62	X63	Y63	Z63	X64	Y64	Z64	X65	Y65	Z65	X66	Y66	Z66	X67	Y67	Z67	X68	Y68	Z68	X69	Y69	Z69	X70	Y70	Z70	X71	Y71	Z71	X72	Y72	Z72	X73	Y73	Z73	X74	Y74	Z74	X75	Y75	Z75	X76	Y76	Z76	X77	Y77	Z77	X78	Y78	Z78	X79	Y79	Z79	X80	Y80	Z80	X81	Y81	Z81	X82	Y82	Z82	X83	Y83	Z83	X84	Y84	Z84	X85	Y85	Z85	
206	6.866666666666666	745.541100069085	1709.0685433362407	-1225.1203746935566	696.0037370697778	1523.50493906282	-1347.9787251032878	754.3636218117645	1372.4355522392302	-1214.6660968845115	934.777774685494	1341.4477178028128	-1245.5496889405003	995.1383560277707	1193.3395236939743	-1458.084340720187	840.9721097449625	1344.3388966678676	-1534.10470043487	595.2126779974949	1320.5406695399104	-1243.8399156499759	436.0775194728706	1245.6724552893183	-1449.7560026276594	636.3980399315645	1353.6249240827074	-1481.7250299085765	840.9052466609023	871.436690921159	-1263.6211572715536	878.2078296812516	486.99820519745515	-1199.6199463464395	959.7383857620333	103.8087612937425	-1194.6571496885422	642.6662495017695	871.0883607718429	-1260.3131969618087	616.3324469301166	479.75938933827297	-1211.7885623229927	549.7426961350864	96.79948491431462	-1182.498233444921	965.2579183548796	47.92980582176369	-1179.837906904901	537.5214268927001	34.20963564823244	-1157.0984477374323	965.3781950957855	33.83441712651159	-1404.578110895231	1030.8591139698685	35.17650028437253	-1344.012464130251	539.9325741822506	37.11256860777559	-1383.668189048968	462.2162520470254	23.365500091529107	-1325.546460326619	597.6605758309657	931.0798781887643	-1310.8507668045042	887.993694740365	928.8302320971966	-1311.8193215172798	792.7466147266882	959.7226309761375	-1164.9016368631264	693.7630733281992	958.7066757290689	-1169.4887309904861	792.7372226511309	1371.8974885854768	-1582.0171983140958	789.2414583759567	1412.8458004604595	-1547.665231245702	695.7726813515302	1380.9743245030302	-1520.9841569193688	712.3105254662181	1397.904121230018	-1473.0714339897693	564.8485367967486	476.8695425442267	-1210.7564287054743	849.3289776185351	1328.2210736735158	-1556.4424831735403	496.42431254812783	91.76735074471503	-1168.918876270507	927.7982211138998	87.07371960685656	-1208.5869979427969	922.2960442103386	481.1640510091852	-1197.2400294144327	746.8319792807224	1220.3640597415779	-1325.5457496919455	574.8650528366693	79.39631588291913	-1200.0306550787866	838.2485942697698	475.04370955721055	-1210.2261543141415	448.3490452760989	1213.4482959315706	-1435.7003733030647	738.2097282949388	1011.345772157636	-1364.815018986947	1020.2887272939885	1224.6559202965652	-1464.4599420044894	839.0710966108726	1347.2704119360017	-1502.5542538442517	620.1717821780969	1354.7329560068513	-1509.2484947713217	425.2502895271939	1284.3644000271136	-1440.586550204395	658.1744108773041	471.98637628919647	-1239.4053341810543	969.7581974232938	1170.9216756129752	-1442.000862046656	1010.122988991248	95.69508595749515	-1196.9329313577623	632.0112992666999	1355.01448587647	-1451.299158135766	708.349807025774	1442.3016629131153	-1331.343277106412	757.9010255804371	1208.4806808900025	-1136.3633302489934	726.9292223007062	1558.9264904805177	-1361.443584598672	659.8322205412035	1555.0841899317043	-1330.4380180413282	654.9815139302664	1546.0759092168337	-1207.9429204432704	822.6963426105667	1552.2540192551148	-1282.4334918106897	758.2596317595664	1423.725692151747	-1160.885421950689	757.6447478692053	1304.889409101343	-1124.7442559949668	766.2195597391695	1064.1921566627896	-1169.8426536644033	756.8471281788056	1200.7225721404338	-1149.9733170886132	942.4975586911428	1299.126679428504	-1378.2835176580702	1003.3210450301598	1238.1020008989267	-1352.804179818056	548.0981675803002	1331.53258370109	-1283.248034396758	478.6740409584282	1226.5416855870646	-1376.478540736634	791.7534325825203	1032.601616644245	-1326.6848704103072	744.3055633328713	1140.212933730083	-1365.0325876092484	679.6178986460544	1265.8571087765497	-1321.8538493784508	668.6194472264733	1067.7392014934676	-1319.5145255350255	831.9443340499982	1303.6206854815935	-1333.7862308932179	843.9338732440564	659.635000909596	-1233.9149664287202	942.5592873712652	635.431221300153	-1215.4303467156697	670.7177088945454	587.1677767840766	-1233.0187795898953	532.2571012184054	769.9615676628144	-1256.0604667345929	498.4625907291671	201.21444413798034	-1188.0576404444985	636.8923037946618	322.75630173271173	-1213.0760767121542	970.828764469187	335.03680670886416	-1194.8475356665072	881.2788351144507	278.53328113133125	-1202.9624286353855	988.8421706149081	28.562442132247323	-1386.1142028533538	1012.6551918856528	32.327984840257564	-1369.231132025986	951.6527120015595	46.0029856354835	-1322.4893988424258	987.8916734265777	55.38160931999907	-1309.0095088636624	1019.5873998380067	44.235713784335715	-1296.3427179053074	491.43363046400776	24.40832545264957	-1356.4750696564836	476.8957513974688	52.9180415032048	-1250.1989461281141	476.8117791330862	24.344787793676666	-1348.1157823110648	509.4170368310114	24.44415441542895	-1366.0989063060133	504.56106076385277	39.23647909376677	-1307.178162821203	536.184483530496	50.51861118857145	-1278.2234883027263	
207	6.8999999999999995	744.6014516321617	1708.2080950816694	-1225.5798611756545	686.3748542283635	1520.3679002489275	-1340.938867712819	754.3600051485463	1372.343657794885	-1216.0284938095992	937.915771921548	1340.6417528932898	-1251.8804170713854	999.7082702402121	1192.7020091497882	-1464.1206925186164	841.563989920891	1340.6331811582734	-1537.9711642372865	594.2234486422317	1323.5518981182342	-1243.2280527400223	446.4796961337846	1240.7893392853741	-1454.5402045678125	644.0220358514262	1352.5043398038908	-1490.607472536781	840.7206008912475	871.8280449868961	-1266.3850803464745	878.6004705166858	487.85524525298445	-1200.0195759973317	960.0645656982463	104.66205554481483	-1194.3106879905536	642.5573073359902	871.5132268161494	-1259.9839939687738	616.4794307851769	480.08441005041885	-1212.0857571194063	550.2745821964044	97.08080767311017	-1182.4958050667367	965.8002494000511	48.99907151011684	-1179.1375402208753	538.2953217512654	34.5144069823697	-1156.9986972300726	963.5483829496328	32.30449183624187	-1403.6883670854895	1029.6925885190062	35.27029533698917	-1343.9062830548316	539.2349287550643	37.15180731846293	-1383.5825660008684	461.94718175944075	23.18339675001011	-1324.9444244953397	596.809488838838	932.3497892223842	-1308.8162432257645	887.0903709202538	929.9875310175604	-1314.3613469792776	794.1724773068034	958.4957409612873	-1165.4832101155714	695.128652236992	957.5994940493359	-1168.5381278554	792.1248658393297	1367.2238616920529	-1585.1982379690064	788.320881589586	1408.1129457898892	-1550.808490074987	702.7021079170072	1379.867346117769	-1530.8881357462549	718.7885816577573	1398.9773966557384	-1483.6464311333616	565.0048730502002	477.20325174176025	-1210.737574519088	849.9147676314226	1324.6703706019941	-1560.4222485582557	497.0804539372938	92.0210392686755	-1168.4475024524004	927.7993331407205	87.84944518036359	-1207.3708300701853	922.7211972262832	481.8622337720379	-1198.9594338207341	744.8550245485408	1219.722189525173	-1325.9971468129293	575.2458668658763	79.6990748285994	-1200.2637315693646	838.2888561036473	475.9523931046785	-1209.2708554855326	458.87218595707645	1209.157841062137	-1439.2948110439904	735.8357306800583	1010.5002654002109	-1364.0747264512308	1024.1278660630114	1224.514679929828	-1470.8692835143495	840.0551007419502	1343.5423897392063	-1506.3974715224797	627.7835918312201	1352.179128583669	-1518.144129322646	434.31626208302475	1279.3671943919005	-1446.6551350624538	658.1524751022872	472.3688582987946	-1239.969008669799	974.9470208034573	1169.8338082628459	-1447.709825261267	1010.3784945070254	96.50350351119636	-1197.7115332933022	639.5898561090021	1354.91186549275	-1460.2517868821412	700.5034500178027	1439.5146952429927	-1324.0191262210803	759.8170048816427	1208.7775572580776	-1137.0260366551743	715.9006378792458	1555.695583400847	-1357.4481767763227	651.5566281435299	1552.0760742499417	-1321.0495004157651	656.6879830106936	1545.1224744739602	-1198.4320299680196	817.7852265085264	1550.7952267894614	-1286.3568617513058	759.2566339050192	1423.9013051438853	-1162.5864656973183	759.6118408956131	1305.2409116240765	-1125.8685005332286	767.7280309244964	1064.3437683878217	-1169.9735347407986	758.4997852609179	1200.9515565907507	-1150.5740748490862	945.4606823362637	1297.7715150088477	-1384.4479533340916	1007.7855947951659	1238.2038020094449	-1359.1497836009396	548.7004949551888	1332.6037309767519	-1284.933257468545	486.14502089926526	1224.1396048806462	-1379.0452724944482	790.1074016071052	1032.0393220657388	-1327.1518040737026	741.6761813877869	1139.3758407557398	-1365.0375789665234	677.6425889406325	1265.1089908032695	-1321.1487405405396	667.0781401125911	1066.984888781502	-1317.6307617274767	829.6194341079611	1303.0941523680674	-1336.3795780396927	843.9037986443172	660.2961125911479	-1234.8304440134289	942.9680341915856	635.8764988536395	-1219.1959908593117	670.7466485731617	587.5361288234344	-1233.4295882713898	532.1659434423354	770.3881678784209	-1255.2550135184847	498.91381352687404	201.48321432290157	-1187.5206288164327	637.0771712168374	323.0890498873411	-1213.6747510299892	971.2442463473933	335.8767390767037	-1196.3665559381116	881.5049084179327	279.37041116969283	-1201.9857972101156	987.2947633784846	27.577790733753258	-1385.4391073499	1011.2435308362207	31.8737097994177	-1368.8777369016177	950.5918105741904	45.22854987108001	-1321.590160354722	986.8456796077935	55.27223390514736	-1308.639881116904	1018.8396028660273	44.72139577462608	-1296.215455878185	490.96044486353816	24.29846675538576	-1356.0620841809564	477.000767986283	52.88214951873053	-1249.7283229833909	476.3931269168805	24.190143649324632	-1347.608577674977	508.8811767466155	24.39017411799053	-1365.8017648054274	504.34948899257046	39.235548128390974	-1306.868530867791	536.1162225403948	50.67145044044304	-1278.1318761118157	
208	6.933333333333334	741.6436962618955	1707.301918353834	-1226.84828569832	676.5248098767735	1516.46903964572	-1333.2640686875166	753.0609514983796	1371.689216347047	-1217.304794700428	936.0422891546931	1338.1454754994336	-1264.6176032606675	1006.128845945093	1192.103568843496	-1475.591656657847	843.9269900713743	1340.7591382996995	-1538.3548372923833	589.5025731902753	1325.595470110936	-1240.7770041153726	461.6428290758912	1237.4067879668983	-1462.5997379291837	655.3366489467562	1352.4008354885652	-1508.021520359369	841.2108476173032	871.7889606958379	-1269.071098551334	878.8894862028421	488.21815273178305	-1200.3636170519467	958.5149862431399	104.6448940784302	-1194.2524932497097	643.2234794752662	871.5527101323539	-1258.5492084253535	616.8866936907685	480.0381620207732	-1211.5056732415992	549.9394669105487	97.14571262518828	-1182.1484306015918	964.1976535368859	49.227907949981606	-1178.7023109130766	538.1343626418216	34.71094214844519	-1156.5340662560475	961.0433883894051	29.651538238722623	-1403.0093997419572	1027.4434215234014	34.90211387112993	-1343.6695602815257	537.5953362576485	36.44086806421399	-1383.1279874805123	460.8119088322248	22.03097283045309	-1323.93673676854	596.5629226871	933.4775762626347	-1305.0964122631574	886.6615034709877	930.9183019269993	-1316.7404014196852	796.9067324568915	956.3125398261726	-1165.3786942890777	697.8195137904725	955.5905339033459	-1166.387093904487	792.6839538817918	1368.5646834906909	-1582.882252141751	789.4893684730076	1407.983297411915	-1546.7573333827847	712.4606178213014	1379.3197259253589	-1550.7630963530323	728.9308405646858	1401.1033980011769	-1504.828896486441	565.4423940014007	477.31458634490383	-1209.088609657346	851.7469228152308	1325.8250515483605	-1561.6876404072832	496.93962240807133	92.20304355472531	-1167.3444497494597	925.8143740476389	87.91569968821177	-1206.2974269353713	922.9741537519112	481.8875241196798	-1200.9882001776275	741.3607353627284	1218.1701122027187	-1325.8024973557274	574.5964598742892	79.74445251417438	-1200.3313278256162	838.1593310105349	476.52436702109026	-1207.8986451847716	473.67734982708936	1206.2342967273848	-1446.1682557144027	732.8739985830294	1008.6009559910445	-1362.0489776139225	1029.7431419904567	1224.6104144261637	-1481.8826164639709	843.3945751135843	1342.3758911007026	-1506.657188208202	638.5839477301303	1350.3206371563692	-1535.1707389544383	447.7797698088476	1275.6530355787538	-1456.010771014505	657.9403663860836	472.2910580938563	-1240.2849738550537	981.7299569476011	1168.5253117953187	-1459.649553287488	1008.6728287163842	96.19602000231997	-1198.9881576707417	651.4280396551993	1356.1533363438282	-1477.7304398320562	692.6246008077417	1436.1264637718652	-1315.6855913702593	762.3489544533667	1208.773563262493	-1137.3219258566426	704.3930254269767	1551.6272307522156	-1352.7483839950132	643.0322040101363	1548.365751644775	-1311.4891010971448	657.5169617536409	1544.237420768495	-1189.4937073770989	811.4190878384134	1549.0875832491593	-1289.5231507227966	759.2107520574491	1423.6866868683396	-1164.4213251228048	761.6993028912132	1305.3137102384273	-1126.8677680796247	770.410630363209	1064.1630339908174	-1169.447391391964	760.6708339448337	1200.8351373722357	-1150.764247040934	947.354570050826	1295.5423591784256	-1397.0031818591856	1010.8805865319315	1237.7952009739076	-1370.5000596623363	547.2325151011152	1333.0852840047871	-1286.062144823045	495.5830602285873	1222.331495829839	-1384.045090138332	788.1007062818636	1030.8525219477012	-1327.0129105775723	737.6182230257467	1137.508243611561	-1364.1359384215887	673.962034464228	1263.0521971850962	-1319.169712208003	665.1477797196098	1064.8820295621815	-1313.8747019621235	825.0661725157556	1302.1378264639222	-1339.4592519915125	844.1002304990088	660.5593479963468	-1235.5257794961947	943.5249423658973	635.535521545458	-1223.567050256679	671.0423384069675	587.393410405367	-1233.6018423900875	532.6281737227168	770.7613956833139	-1251.8646515444207	498.832870516864	201.7187888492623	-1186.1015888827537	636.975661752144	322.9868313946737	-1213.8821908773466	970.8185759082064	335.777556379151	-1198.2218549516513	880.6694572653273	279.7122750282762	-1200.962360924072	984.9976178125845	25.70653240303981	-1384.846261539016	1008.9349770633753	30.76438093600864	-1368.4847709344033	948.2623229596063	43.30790181062041	-1321.0022799736887	984.3470488628127	54.35072193906201	-1308.3976371258875	1016.6482127509772	44.70094214096444	-1296.0358324622912	489.6137534503177	23.275172205347125	-1355.2453182740167	476.0859928632197	52.164547360437595	-1248.9383478256948	475.1025526352967	23.073018151843723	-1346.697544122476	507.4700542132658	23.484978786436017	-1365.1008205135713	503.1863380872738	38.52798517997903	-1306.199164165445	535.0349795510384	50.35859400033847	-1277.7140578745148	
209	6.966666666666667	737.6595431038767	1706.0069839933976	-1227.5513920129745	667.9012865874058	1512.7840913865584	-1326.4486884861153	751.9148312236719	1370.3912874901741	-1218.1675233300778	931.3955184364764	1332.25335992265	-1278.6152077137876	1010.3032608866466	1190.5504316902893	-1489.433289151466	844.8422649277001	1342.0529099793393	-1534.3420311861705	581.7542596923169	1326.4574688876955	-1236.5242365895642	473.550549231061	1233.7449005759195	-1466.8002009874617	662.6405534684583	1351.910683360498	-1522.3509275095018	841.3534153590225	871.7037076798443	-1272.8336049516606	879.5193478340824	488.63908804902326	-1201.6006101014298	957.3860724386486	104.72824604086695	-1194.1676138892205	643.7290927743138	870.9619572141089	-1256.9012209761215	618.1650019466534	479.56161099933826	-1208.8305837773278	549.657550949463	96.7765032883422	-1181.762204703475	963.1331024433968	49.46547274121975	-1178.1735770508046	538.0309761559345	34.57285296337336	-1156.1834107014733	958.3699975658857	28.103950835756176	-1402.289288129676	1025.1617259990758	35.760820013490296	-1343.6549393300234	535.9789025957939	34.82282567580047	-1382.7751467307082	459.8062601176197	19.671821422089973	-1322.982843073071	595.783032639098	934.0365634297812	-1300.505213435541	885.4543743358001	932.1196678025877	-1320.1561231400606	799.8724285036376	953.4176052600632	-1165.7758101743107	700.7951350074302	952.6079598135617	-1164.0877778579659	791.4366533421854	1372.4381376678666	-1574.420284191464	789.8699709737381	1409.3544825190434	-1535.6417947426492	717.8982043411305	1378.4194544775744	-1567.7215553941423	734.8359663811926	1402.7558279268142	-1523.26258028089	566.8061893524509	476.90607616559595	-1204.7209960277512	851.5737262821935	1328.7466133625878	-1558.9637267978387	496.9162976582749	91.98026807497162	-1166.0164855090413	924.2061447328374	88.05026619565814	-1204.9013828506895	923.476718802577	481.96469843493486	-1204.2557861653204	737.1024784334442	1216.06621897058	-1325.1307380705496	573.8746110880058	79.41365675104927	-1200.5625894147822	838.3920904670717	477.1802682758194	-1207.046325534954	485.4234488257413	1203.0191413498012	-1449.436172573627	728.7295199033218	1006.2032135641134	-1359.662980899056	1033.225644835358	1223.715966104973	-1494.773495498796	845.8306207591643	1341.5610182872867	-1502.617915625852	645.3011351191607	1348.1088887211547	-1548.9394818573026	457.93035732547366	1271.4914036125608	-1461.360948560048	658.1903264076822	471.67397541210204	-1239.0122264941356	986.133830391457	1166.175285637984	-1474.364064417591	1007.3078161816451	95.96118201685383	-1200.5376407565748	659.3610516306434	1356.947377498614	-1492.1717189607375	685.132973819331	1432.8744724178766	-1307.9917823997343	765.502197350853	1208.0874706835423	-1137.558027245151	694.6360506466833	1547.5777453418857	-1348.059528774432	635.4414295039926	1545.066279060563	-1303.6995756516537	656.0633190187668	1543.5947120857238	-1182.5290364306857	804.7173168353086	1546.638800844414	-1290.2694674783713	759.7470347401145	1422.7858080158683	-1165.9019596283815	764.5599473907926	1304.688961160794	-1127.7104060755412	773.353612776648	1063.3237450099205	-1169.0391380177168	763.3581740485901	1200.047064964169	-1150.872896107635	947.0108441114156	1291.5286929083152	-1411.1542500403257	1011.3273240185257	1235.0931133304682	-1383.7476758854402	542.668947526676	1332.4475214684076	-1284.7948978128568	502.1669116708547	1219.906185520733	-1385.9322210473358	785.1190910692645	1029.0768122732234	-1326.957290721853	732.4520492344435	1135.123584619639	-1362.7666198823842	669.6899070325849	1260.518649137167	-1316.1581719161238	662.5289941140447	1062.3317755067014	-1309.2423926645722	819.5986043685492	1300.5244143496013	-1342.591741290035	844.3265911797284	660.844769317899	-1237.0389882678946	944.0271925302466	635.1883680307251	-1229.554632021791	671.7584124821806	586.7493302571049	-1232.811648115562	533.2041460204913	770.4124946751965	-1246.4639918534024	499.0659558737233	201.65453433879264	-1183.794207897872	637.3362775929556	322.4337982065957	-1213.03148395881	970.7029496308179	335.7375482336599	-1201.0090183819962	880.2332676082832	280.1317469273975	-1200.0492091012197	982.6065452234474	25.00513580434645	-1384.337829394384	1006.542416959259	30.890836658338255	-1368.2533665748554	945.991692759619	41.99891782472838	-1320.2604696893598	981.855386641027	54.196646927458794	-1308.0974434567013	1014.5468983289281	45.59792607385443	-1295.9885741261496	488.3804906371778	21.135406107803817	-1354.4898713597443	475.1269947762881	50.512929755726404	-1248.2821775657687	473.9302711470647	20.77572642555133	-1345.844523158851	506.16667702339527	21.54336034721293	-1364.4652193389115	502.0486981452723	36.90411754260153	-1305.633792583302	533.9059939842493	49.385867402964024	-1277.4377082664214	
